%TF.GenerationSoftware,KiCad,Pcbnew,(5.1.10)-1*%
%TF.CreationDate,2022-07-13T10:10:06+10:00*%
%TF.ProjectId,6_key_lp_macropad,365f6b65-795f-46c7-905f-6d6163726f70,rev?*%
%TF.SameCoordinates,Original*%
%TF.FileFunction,Legend,Top*%
%TF.FilePolarity,Positive*%
%FSLAX46Y46*%
G04 Gerber Fmt 4.6, Leading zero omitted, Abs format (unit mm)*
G04 Created by KiCad (PCBNEW (5.1.10)-1) date 2022-07-13 10:10:06*
%MOMM*%
%LPD*%
G01*
G04 APERTURE LIST*
%ADD10C,0.120000*%
%ADD11C,0.125000*%
%ADD12C,0.100000*%
%ADD13C,0.150000*%
G04 APERTURE END LIST*
D10*
X819785000Y5715000D02*
X817880000Y5715000D01*
X819785000Y7620000D02*
X819785000Y5715000D01*
X819785000Y19685000D02*
X819785000Y17780000D01*
X817880000Y19685000D02*
X819785000Y19685000D01*
X805815000Y19685000D02*
X805815000Y17780000D01*
X807720000Y19685000D02*
X805815000Y19685000D01*
X800735000Y19685000D02*
X800735000Y17780000D01*
X798830000Y19685000D02*
X800735000Y19685000D01*
X786765000Y19685000D02*
X788670000Y19685000D01*
X786765000Y17780000D02*
X786765000Y19685000D01*
X805815000Y5715000D02*
X807720000Y5715000D01*
X805815000Y7620000D02*
X805815000Y5715000D01*
X800735000Y5715000D02*
X798830000Y5715000D01*
X800735000Y7620000D02*
X800735000Y5715000D01*
X786765000Y5715000D02*
X788670000Y5715000D01*
X786765000Y7620000D02*
X786765000Y5715000D01*
X781685000Y5715000D02*
X779780000Y5715000D01*
X781685000Y7620000D02*
X781685000Y5715000D01*
X767715000Y5715000D02*
X769620000Y5715000D01*
X767715000Y7620000D02*
X767715000Y5715000D01*
X767715000Y19685000D02*
X767715000Y17780000D01*
X769620000Y19685000D02*
X767715000Y19685000D01*
X781685000Y19685000D02*
X781685000Y17780000D01*
X779780000Y19685000D02*
X781685000Y19685000D01*
X781685000Y24765000D02*
X781685000Y26670000D01*
X779780000Y24765000D02*
X781685000Y24765000D01*
X767715000Y24765000D02*
X769620000Y24765000D01*
X767715000Y26670000D02*
X767715000Y24765000D01*
X767715000Y38735000D02*
X767715000Y36830000D01*
X769620000Y38735000D02*
X767715000Y38735000D01*
X781685000Y38735000D02*
X781685000Y36830000D01*
X779780000Y38735000D02*
X781685000Y38735000D01*
X800735000Y38735000D02*
X800735000Y36830000D01*
X798830000Y38735000D02*
X800735000Y38735000D01*
X786765000Y38735000D02*
X788670000Y38735000D01*
X786765000Y36830000D02*
X786765000Y38735000D01*
X786765000Y24765000D02*
X786765000Y26670000D01*
X788670000Y24765000D02*
X786765000Y24765000D01*
X800735000Y24765000D02*
X798830000Y24765000D01*
X800735000Y26670000D02*
X800735000Y24765000D01*
X805815000Y24765000D02*
X805815000Y26670000D01*
X807720000Y24765000D02*
X805815000Y24765000D01*
X819785000Y24765000D02*
X817880000Y24765000D01*
X819785000Y26670000D02*
X819785000Y24765000D01*
X819785000Y38735000D02*
X819785000Y36830000D01*
X817880000Y38735000D02*
X819785000Y38735000D01*
X805815000Y38735000D02*
X807720000Y38735000D01*
X805815000Y36830000D02*
X805815000Y38735000D01*
D11*
X766806190Y48732619D02*
X767210952Y48732619D01*
X767258571Y48756428D01*
X767282380Y48780238D01*
X767306190Y48827857D01*
X767306190Y48923095D01*
X767282380Y48970714D01*
X767258571Y48994523D01*
X767210952Y49018333D01*
X766806190Y49018333D01*
X767282380Y49232619D02*
X767306190Y49304047D01*
X767306190Y49423095D01*
X767282380Y49470714D01*
X767258571Y49494523D01*
X767210952Y49518333D01*
X767163333Y49518333D01*
X767115714Y49494523D01*
X767091904Y49470714D01*
X767068095Y49423095D01*
X767044285Y49327857D01*
X767020476Y49280238D01*
X766996666Y49256428D01*
X766949047Y49232619D01*
X766901428Y49232619D01*
X766853809Y49256428D01*
X766830000Y49280238D01*
X766806190Y49327857D01*
X766806190Y49446904D01*
X766830000Y49518333D01*
X767044285Y49899285D02*
X767068095Y49970714D01*
X767091904Y49994523D01*
X767139523Y50018333D01*
X767210952Y50018333D01*
X767258571Y49994523D01*
X767282380Y49970714D01*
X767306190Y49923095D01*
X767306190Y49732619D01*
X766806190Y49732619D01*
X766806190Y49899285D01*
X766830000Y49946904D01*
X766853809Y49970714D01*
X766901428Y49994523D01*
X766949047Y49994523D01*
X766996666Y49970714D01*
X767020476Y49946904D01*
X767044285Y49899285D01*
X767044285Y49732619D01*
X767258571Y50899285D02*
X767282380Y50875476D01*
X767306190Y50804047D01*
X767306190Y50756428D01*
X767282380Y50685000D01*
X767234761Y50637380D01*
X767187142Y50613571D01*
X767091904Y50589761D01*
X767020476Y50589761D01*
X766925238Y50613571D01*
X766877619Y50637380D01*
X766830000Y50685000D01*
X766806190Y50756428D01*
X766806190Y50804047D01*
X766830000Y50875476D01*
X766853809Y50899285D01*
X767306190Y51185000D02*
X767282380Y51137380D01*
X767258571Y51113571D01*
X767210952Y51089761D01*
X767068095Y51089761D01*
X767020476Y51113571D01*
X766996666Y51137380D01*
X766972857Y51185000D01*
X766972857Y51256428D01*
X766996666Y51304047D01*
X767020476Y51327857D01*
X767068095Y51351666D01*
X767210952Y51351666D01*
X767258571Y51327857D01*
X767282380Y51304047D01*
X767306190Y51256428D01*
X767306190Y51185000D01*
X766972857Y51565952D02*
X767306190Y51565952D01*
X767020476Y51565952D02*
X766996666Y51589761D01*
X766972857Y51637380D01*
X766972857Y51708809D01*
X766996666Y51756428D01*
X767044285Y51780238D01*
X767306190Y51780238D01*
X766972857Y52018333D02*
X767306190Y52018333D01*
X767020476Y52018333D02*
X766996666Y52042142D01*
X766972857Y52089761D01*
X766972857Y52161190D01*
X766996666Y52208809D01*
X767044285Y52232619D01*
X767306190Y52232619D01*
X767282380Y52661190D02*
X767306190Y52613571D01*
X767306190Y52518333D01*
X767282380Y52470714D01*
X767234761Y52446904D01*
X767044285Y52446904D01*
X766996666Y52470714D01*
X766972857Y52518333D01*
X766972857Y52613571D01*
X766996666Y52661190D01*
X767044285Y52685000D01*
X767091904Y52685000D01*
X767139523Y52446904D01*
X767282380Y53113571D02*
X767306190Y53065952D01*
X767306190Y52970714D01*
X767282380Y52923095D01*
X767258571Y52899285D01*
X767210952Y52875476D01*
X767068095Y52875476D01*
X767020476Y52899285D01*
X766996666Y52923095D01*
X766972857Y52970714D01*
X766972857Y53065952D01*
X766996666Y53113571D01*
X766972857Y53256428D02*
X766972857Y53446904D01*
X766806190Y53327857D02*
X767234761Y53327857D01*
X767282380Y53351666D01*
X767306190Y53399285D01*
X767306190Y53446904D01*
X767306190Y53685000D02*
X767282380Y53637380D01*
X767258571Y53613571D01*
X767210952Y53589761D01*
X767068095Y53589761D01*
X767020476Y53613571D01*
X766996666Y53637380D01*
X766972857Y53685000D01*
X766972857Y53756428D01*
X766996666Y53804047D01*
X767020476Y53827857D01*
X767068095Y53851666D01*
X767210952Y53851666D01*
X767258571Y53827857D01*
X767282380Y53804047D01*
X767306190Y53756428D01*
X767306190Y53685000D01*
X767306190Y54065952D02*
X766972857Y54065952D01*
X767068095Y54065952D02*
X767020476Y54089761D01*
X766996666Y54113571D01*
X766972857Y54161190D01*
X766972857Y54208809D01*
D10*
X768350000Y47625000D02*
X765175000Y47625000D01*
D12*
G36*
X765810000Y50800000D02*
G01*
X765175000Y51435000D01*
X765810000Y52070000D01*
X765810000Y50800000D01*
G37*
X765810000Y50800000D02*
X765175000Y51435000D01*
X765810000Y52070000D01*
X765810000Y50800000D01*
D10*
X768350000Y55245000D02*
X768350000Y47625000D01*
X765175000Y55245000D02*
X768350000Y55245000D01*
D13*
X772248333Y51077857D02*
X772200714Y51030238D01*
X772057857Y50982619D01*
X771962619Y50982619D01*
X771819761Y51030238D01*
X771724523Y51125476D01*
X771676904Y51220714D01*
X771629285Y51411190D01*
X771629285Y51554047D01*
X771676904Y51744523D01*
X771724523Y51839761D01*
X771819761Y51935000D01*
X771962619Y51982619D01*
X772057857Y51982619D01*
X772200714Y51935000D01*
X772248333Y51887380D01*
X772819761Y50982619D02*
X772724523Y51030238D01*
X772676904Y51077857D01*
X772629285Y51173095D01*
X772629285Y51458809D01*
X772676904Y51554047D01*
X772724523Y51601666D01*
X772819761Y51649285D01*
X772962619Y51649285D01*
X773057857Y51601666D01*
X773105476Y51554047D01*
X773153095Y51458809D01*
X773153095Y51173095D01*
X773105476Y51077857D01*
X773057857Y51030238D01*
X772962619Y50982619D01*
X772819761Y50982619D01*
X773581666Y50982619D02*
X773581666Y51649285D01*
X773581666Y51554047D02*
X773629285Y51601666D01*
X773724523Y51649285D01*
X773867380Y51649285D01*
X773962619Y51601666D01*
X774010238Y51506428D01*
X774010238Y50982619D01*
X774010238Y51506428D02*
X774057857Y51601666D01*
X774153095Y51649285D01*
X774295952Y51649285D01*
X774391190Y51601666D01*
X774438809Y51506428D01*
X774438809Y50982619D01*
X774915000Y51649285D02*
X774915000Y50649285D01*
X774915000Y51601666D02*
X775010238Y51649285D01*
X775200714Y51649285D01*
X775295952Y51601666D01*
X775343571Y51554047D01*
X775391190Y51458809D01*
X775391190Y51173095D01*
X775343571Y51077857D01*
X775295952Y51030238D01*
X775200714Y50982619D01*
X775010238Y50982619D01*
X774915000Y51030238D01*
X775962619Y50982619D02*
X775867380Y51030238D01*
X775819761Y51077857D01*
X775772142Y51173095D01*
X775772142Y51458809D01*
X775819761Y51554047D01*
X775867380Y51601666D01*
X775962619Y51649285D01*
X776105476Y51649285D01*
X776200714Y51601666D01*
X776248333Y51554047D01*
X776295952Y51458809D01*
X776295952Y51173095D01*
X776248333Y51077857D01*
X776200714Y51030238D01*
X776105476Y50982619D01*
X775962619Y50982619D01*
X776724523Y51649285D02*
X776724523Y50982619D01*
X776724523Y51554047D02*
X776772142Y51601666D01*
X776867380Y51649285D01*
X777010238Y51649285D01*
X777105476Y51601666D01*
X777153095Y51506428D01*
X777153095Y50982619D01*
X778010238Y51030238D02*
X777915000Y50982619D01*
X777724523Y50982619D01*
X777629285Y51030238D01*
X777581666Y51125476D01*
X777581666Y51506428D01*
X777629285Y51601666D01*
X777724523Y51649285D01*
X777915000Y51649285D01*
X778010238Y51601666D01*
X778057857Y51506428D01*
X778057857Y51411190D01*
X777581666Y51315952D01*
X778486428Y51649285D02*
X778486428Y50982619D01*
X778486428Y51554047D02*
X778534047Y51601666D01*
X778629285Y51649285D01*
X778772142Y51649285D01*
X778867380Y51601666D01*
X778915000Y51506428D01*
X778915000Y50982619D01*
X779248333Y51649285D02*
X779629285Y51649285D01*
X779391190Y51982619D02*
X779391190Y51125476D01*
X779438809Y51030238D01*
X779534047Y50982619D01*
X779629285Y50982619D01*
X779915000Y51030238D02*
X780010238Y50982619D01*
X780200714Y50982619D01*
X780295952Y51030238D01*
X780343571Y51125476D01*
X780343571Y51173095D01*
X780295952Y51268333D01*
X780200714Y51315952D01*
X780057857Y51315952D01*
X779962619Y51363571D01*
X779915000Y51458809D01*
X779915000Y51506428D01*
X779962619Y51601666D01*
X780057857Y51649285D01*
X780200714Y51649285D01*
X780295952Y51601666D01*
X781867380Y51506428D02*
X781534047Y51506428D01*
X781534047Y50982619D02*
X781534047Y51982619D01*
X782010238Y51982619D01*
X782819761Y50982619D02*
X782819761Y51506428D01*
X782772142Y51601666D01*
X782676904Y51649285D01*
X782486428Y51649285D01*
X782391190Y51601666D01*
X782819761Y51030238D02*
X782724523Y50982619D01*
X782486428Y50982619D01*
X782391190Y51030238D01*
X782343571Y51125476D01*
X782343571Y51220714D01*
X782391190Y51315952D01*
X782486428Y51363571D01*
X782724523Y51363571D01*
X782819761Y51411190D01*
X783724523Y51030238D02*
X783629285Y50982619D01*
X783438809Y50982619D01*
X783343571Y51030238D01*
X783295952Y51077857D01*
X783248333Y51173095D01*
X783248333Y51458809D01*
X783295952Y51554047D01*
X783343571Y51601666D01*
X783438809Y51649285D01*
X783629285Y51649285D01*
X783724523Y51601666D01*
X784534047Y51030238D02*
X784438809Y50982619D01*
X784248333Y50982619D01*
X784153095Y51030238D01*
X784105476Y51125476D01*
X784105476Y51506428D01*
X784153095Y51601666D01*
X784248333Y51649285D01*
X784438809Y51649285D01*
X784534047Y51601666D01*
X784581666Y51506428D01*
X784581666Y51411190D01*
X784105476Y51315952D01*
X785772142Y50982619D02*
X785772142Y51982619D01*
X786010238Y51982619D01*
X786153095Y51935000D01*
X786248333Y51839761D01*
X786295952Y51744523D01*
X786343571Y51554047D01*
X786343571Y51411190D01*
X786295952Y51220714D01*
X786248333Y51125476D01*
X786153095Y51030238D01*
X786010238Y50982619D01*
X785772142Y50982619D01*
X786915000Y50982619D02*
X786819761Y51030238D01*
X786772142Y51077857D01*
X786724523Y51173095D01*
X786724523Y51458809D01*
X786772142Y51554047D01*
X786819761Y51601666D01*
X786915000Y51649285D01*
X787057857Y51649285D01*
X787153095Y51601666D01*
X787200714Y51554047D01*
X787248333Y51458809D01*
X787248333Y51173095D01*
X787200714Y51077857D01*
X787153095Y51030238D01*
X787057857Y50982619D01*
X786915000Y50982619D01*
X787581666Y51649285D02*
X787772142Y50982619D01*
X787962619Y51458809D01*
X788153095Y50982619D01*
X788343571Y51649285D01*
X788724523Y51649285D02*
X788724523Y50982619D01*
X788724523Y51554047D02*
X788772142Y51601666D01*
X788867380Y51649285D01*
X789010238Y51649285D01*
X789105476Y51601666D01*
X789153095Y51506428D01*
X789153095Y50982619D01*
%TO.C,SW2*%
X801100000Y52070000D02*
G75*
G03*
X801100000Y52070000I-1000000J0D01*
G01*
X802700000Y49470000D02*
X797500000Y49470000D01*
X802700000Y54670000D02*
X802700000Y49470000D01*
X797500000Y54670000D02*
X802700000Y54670000D01*
X797500000Y49470000D02*
X797500000Y54670000D01*
D10*
%TO.C,SW1*%
X812840000Y51420000D02*
X812840000Y50420000D01*
X813340000Y50920000D02*
X812340000Y50920000D01*
X809340000Y44820000D02*
X806940000Y44820000D01*
X814140000Y44820000D02*
X811540000Y44820000D01*
X818740000Y44820000D02*
X816340000Y44820000D01*
X816940000Y58120000D02*
X816640000Y58420000D01*
X816940000Y58720000D02*
X816940000Y58120000D01*
X816640000Y58420000D02*
X816940000Y58720000D01*
X818740000Y57020000D02*
X806940000Y57020000D01*
X818740000Y52920000D02*
X818740000Y57020000D01*
X806940000Y52920000D02*
X806940000Y57020000D01*
X806940000Y44820000D02*
X806940000Y48920000D01*
X818740000Y48920000D02*
X818740000Y44820000D01*
X815840000Y50920000D02*
G75*
G03*
X815840000Y50920000I-3000000J0D01*
G01*
%TO.C,SW2*%
D13*
X804568761Y50736666D02*
X804616380Y50879523D01*
X804616380Y51117619D01*
X804568761Y51212857D01*
X804521142Y51260476D01*
X804425904Y51308095D01*
X804330666Y51308095D01*
X804235428Y51260476D01*
X804187809Y51212857D01*
X804140190Y51117619D01*
X804092571Y50927142D01*
X804044952Y50831904D01*
X803997333Y50784285D01*
X803902095Y50736666D01*
X803806857Y50736666D01*
X803711619Y50784285D01*
X803664000Y50831904D01*
X803616380Y50927142D01*
X803616380Y51165238D01*
X803664000Y51308095D01*
X803616380Y51641428D02*
X804616380Y51879523D01*
X803902095Y52070000D01*
X804616380Y52260476D01*
X803616380Y52498571D01*
X803711619Y52831904D02*
X803664000Y52879523D01*
X803616380Y52974761D01*
X803616380Y53212857D01*
X803664000Y53308095D01*
X803711619Y53355714D01*
X803806857Y53403333D01*
X803902095Y53403333D01*
X804044952Y53355714D01*
X804616380Y52784285D01*
X804616380Y53403333D01*
%TO.C,SW1*%
X820444761Y54286666D02*
X820492380Y54429523D01*
X820492380Y54667619D01*
X820444761Y54762857D01*
X820397142Y54810476D01*
X820301904Y54858095D01*
X820206666Y54858095D01*
X820111428Y54810476D01*
X820063809Y54762857D01*
X820016190Y54667619D01*
X819968571Y54477142D01*
X819920952Y54381904D01*
X819873333Y54334285D01*
X819778095Y54286666D01*
X819682857Y54286666D01*
X819587619Y54334285D01*
X819540000Y54381904D01*
X819492380Y54477142D01*
X819492380Y54715238D01*
X819540000Y54858095D01*
X819492380Y55191428D02*
X820492380Y55429523D01*
X819778095Y55620000D01*
X820492380Y55810476D01*
X819492380Y56048571D01*
X820492380Y56953333D02*
X820492380Y56381904D01*
X820492380Y56667619D02*
X819492380Y56667619D01*
X819635238Y56572380D01*
X819730476Y56477142D01*
X819778095Y56381904D01*
%TD*%
M02*
