M48
; DRILL file {KiCad (5.1.10)-1} date 07/13/22 10:10:08
; FORMAT={-:-/ absolute / metric / decimal}
; #@! TF.CreationDate,2022-07-13T10:10:08+10:00
; #@! TF.GenerationSoftware,Kicad,Pcbnew,(5.1.10)-1
; #@! TF.FileFunction,Plated,1,2,PTH
FMAT,2
METRIC
T1C1.000
T2C1.040
T3C1.100
T4C1.200
T5C1.500
%
G90
G05
T1
X810.34Y58.42
X810.34Y43.92
X812.84Y58.42
X815.34Y58.42
X815.34Y43.92
T2
X773.43Y27.05
X773.43Y8.0
X775.97Y27.05
X775.97Y8.0
X792.48Y27.05
X792.48Y8.0
X795.02Y27.05
X795.02Y8.0
X811.53Y27.05
X811.53Y8.0
X814.07Y27.05
X814.07Y8.0
T3
X766.445Y59.055
X766.445Y43.815
X768.985Y59.055
X768.985Y43.815
X771.525Y59.055
X771.525Y43.815
X774.065Y59.055
X774.065Y43.815
X776.605Y59.055
X776.605Y43.815
X779.145Y59.055
X779.145Y43.815
X781.685Y59.055
X781.685Y43.815
X784.225Y59.055
X784.225Y43.815
X786.765Y59.055
X786.765Y43.815
X789.305Y59.055
X789.305Y43.815
X791.845Y59.055
X791.845Y43.815
X794.385Y59.055
X794.385Y43.815
T4
X774.7Y37.65
X774.7Y18.6
X779.7Y35.55
X779.7Y16.5
X793.75Y37.65
X793.75Y18.6
X798.75Y35.55
X798.75Y16.5
X812.8Y37.65
X812.8Y18.6
X817.8Y35.55
X817.8Y16.5
T5
G00X807.24Y51.57
M15
G01X807.24Y50.27
M16
G05
G00X818.44Y51.57
M15
G01X818.44Y50.27
M16
G05
T0
M30
