M48
; DRILL file {KiCad (5.1.10)-1} date 07/13/22 10:10:08
; FORMAT={-:-/ absolute / metric / decimal}
; #@! TF.CreationDate,2022-07-13T10:10:08+10:00
; #@! TF.GenerationSoftware,Kicad,Pcbnew,(5.1.10)-1
; #@! TF.FileFunction,NonPlated,1,2,NPTH
FMAT,2
METRIC
T1C1.200
T2C1.900
T3C3.400
%
G90
G05
T1
X769.48Y27.55
X769.48Y8.5
X788.53Y27.55
X788.53Y8.5
X807.58Y27.55
X807.58Y8.5
T2
X769.2Y31.75
X769.2Y12.7
X780.2Y31.75
X780.2Y12.7
X788.25Y31.75
X788.25Y12.7
X799.25Y31.75
X799.25Y12.7
X807.3Y31.75
X807.3Y12.7
X818.3Y31.75
X818.3Y12.7
T3
X774.7Y31.75
X774.7Y12.7
X793.75Y31.75
X793.75Y12.7
X812.8Y31.75
X812.8Y12.7
T0
M30
